# xmcd CD database file
#
# Track frame offsets:
#	150
#	15620
#	34192
#	48664
#	63980
#	78507
#	87452
#	108350
#	120432
#	137422
#	150135
#	167030
#	188302
#	203782
#	220084
#
# Disc length: 3088 seconds
#
# Revision: 0
# Processed by: cddbd v1.5.1PL0 Copyright (c) Steve Scherf et al.
# Submitted via: CDex 1.51
#
DISCID=b70c0e0f
DTITLE=Crooked County - Drunkard's Lament
DYEAR=1900
DGENRE=Country
TTITLE0=High On The Hog
TTITLE1=Drunkard's Lament
TTITLE2=L&N Railroad
TTITLE3=River
TTITLE4=Kentucky
TTITLE5=Deliah
TTITLE6=90mph
TTITLE7=Feed The Dog
TTITLE8=True Evil
TTITLE9=Aging
TTITLE10=Sign In The Window
TTITLE11=Grandpa's Grave
TTITLE12=Get Drunk And Gamble
TTITLE13=Shards Of Glass
TTITLE14=Am I Crazy
EXTD=
EXTT0=
EXTT1=
EXTT2=
EXTT3=
EXTT4=
EXTT5=
EXTT6=
EXTT7=
EXTT8=
EXTT9=
EXTT10=
EXTT11=
EXTT12=
EXTT13=
EXTT14=
PLAYORDER=
